<svg height="491" xmlns="http://www.w3.org/2000/svg" width="898" xmlns:xlink="http://www.w3.org/1999/xlink" viewBox="0 0 898 491"><defs/><g transform="translate(-103.94,-170.08)"><path fill-rule="nonzero" id="shape1" d="M897.6,491.3L897.6,.0L.0,.0L.0,491.3L897.6,491.3z" fill="#ffffff" transform="translate(103.937008,170.078740)"/><path fill-rule="nonzero" stroke-width="1" id="shape2" d="M642.0,454.0L642.0,.0L.0,.0L.0,454.0L642.0,454.0z" fill="#ffffff" stroke="#101843" transform="translate(227.000000,191.000000)"/><path fill-rule="nonzero" stroke-width="1" id="shape3" d="M136.0,423.0L136.0,.0L.0,.0L.0,423.0L136.0,423.0z" fill="#ffffff" stroke="#101843" transform="translate(695.000000,212.000000)"/><g id="shape4" transform="translate(115.000000,227.051000)"><path fill-rule="nonzero" stroke-width="1" d="M74.0,378.0L74.0,.0L.0,.0L.0,378.0L74.0,378.0z" fill="#ffffff" stroke="#101843"/><text xml:space="preserve" style="fill:#191919;font-family:微软雅黑,PingFang SC,Mircrosoft YaHei,Arial;font-size:13px"><tspan textLength="56.0" y="194.5" x="9.0">Frontend</tspan></text></g><g id="shape5" transform="translate(265.000000,227.000000)"><path fill-rule="nonzero" stroke-width="1" d="M84.6,378.0L84.6,.0L.0,.0L.0,378.0L84.6,378.0z" fill="#ffffff" stroke="#101843"/><text xml:space="preserve" style="fill:#191919;font-family:微软雅黑,PingFang SC,Mircrosoft YaHei,Arial;font-size:13px"><tspan textLength="69.0" y="194.5" x="7.8">Interceptor</tspan></text></g><g id="shape6" transform="translate(417.000000,227.000000)"><path fill-rule="nonzero" stroke-width="1" d="M74.0,378.0L74.0,.0L.0,.0L.0,378.0L74.0,378.0z" fill="#ffffff" stroke="#101843"/><text xml:space="preserve" style="fill:#191919;font-family:微软雅黑,PingFang SC,Mircrosoft YaHei,Arial;font-size:13px"><tspan textLength="61.0" y="194.5" x="6.5">Controller</tspan></text></g><g id="shape7" transform="translate(568.000000,227.000000)"><path fill-rule="nonzero" stroke-width="1" d="M74.0,378.0L74.0,.0L.0,.0L.0,378.0L74.0,378.0z" fill="#ffffff" stroke="#101843"/><text xml:space="preserve" style="fill:#191919;font-family:微软雅黑,PingFang SC,Mircrosoft YaHei,Arial;font-size:13px"><tspan textLength="44.0" y="194.5" x="15.0">Service</tspan></text></g><g id="shape8" transform="translate(722.317300,226.854700)"><path fill-rule="nonzero" stroke-width="1" d="M90.4,69.0L90.4,.0L.0,.0L.0,69.0L90.4,69.0z" fill="#ffffff" stroke="#101843"/><text xml:space="preserve" style="fill:#191919;font-family:微软雅黑,PingFang SC,Mircrosoft YaHei,Arial;font-size:13px"><tspan textLength="48.0" y="40.0" x="21.2">Mapper</tspan></text></g><g id="shape9" transform="translate(722.317300,330.222700)"><path fill-rule="nonzero" stroke-width="1" d="M90.4,69.0L90.4,.0L.0,.0L.0,69.0L90.4,69.0z" fill="#ffffff" stroke="#101843"/><text xml:space="preserve" style="fill:#191919;font-family:微软雅黑,PingFang SC,Mircrosoft YaHei,Arial;font-size:13px"><tspan textLength="66.0" y="40.0" x="12.2">OSS Client</tspan></text></g><g id="shape10" transform="translate(722.317300,433.590700)"><path fill-rule="nonzero" stroke-width="1" d="M90.4,69.0L90.4,.0L.0,.0L.0,69.0L90.4,69.0z" fill="#ffffff" stroke="#101843"/><text xml:space="preserve" style="fill:#191919;font-family:微软雅黑,PingFang SC,Mircrosoft YaHei,Arial;font-size:13px"><tspan textLength="78.0" y="30.5" x="6.2">Elasticsearch</tspan><tspan textLength="35.0" y="49.5" x="27.7">Client</tspan></text></g><g id="shape11" transform="translate(469.000000,189.000000)"><text xml:space="preserve" style="fill:#191919;font-family:微软雅黑,PingFang SC,Mircrosoft YaHei,Arial;font-size:13px"><tspan textLength="52.0" y="23.0" x="34.0">Backend</tspan></text></g><g id="shape12" transform="translate(722.317300,536.054700)"><path fill-rule="nonzero" stroke-width="1" d="M90.4,69.0L90.4,.0L.0,.0L.0,69.0L90.4,69.0z" fill="#ffffff" stroke="#101843"/><text xml:space="preserve" style="fill:#191919;font-family:微软雅黑,PingFang SC,Mircrosoft YaHei,Arial;font-size:13px"><tspan textLength="66.0" y="30.5" x="12.2">Blockchain</tspan><tspan textLength="35.0" y="49.5" x="27.7">Client</tspan></text></g><g id="shape13" transform="translate(355.000000,491.000000)"><path stroke-width="1" d="M8.0,.0L53.0,.0" stroke="#000000" fill="none"/><path stroke-linecap="round" stroke-width="1" d="M8.0,4.0L.0,.0L8.0,-4.0L8.0,4.0" fill="#000000" stroke="#000000"/></g><g id="shape14" transform="translate(506.000000,491.000000)"><path stroke-width="1" d="M8.0,.0L53.0,.0" stroke="#000000" fill="none"/><path stroke-linecap="round" stroke-width="1" d="M8.0,4.0L.0,.0L8.0,-4.0L8.0,4.0" fill="#000000" stroke="#000000"/></g><g id="shape15" transform="matrix(-1.000000,0.000000,0.000000,-1.000000,711.000000,249.000000)"><path stroke-width="1" d="M8.0,.0L58.0,.0" stroke="#000000" fill="none"/><path stroke-linecap="round" stroke-width="1" d="M8.0,4.0L.0,.0L8.0,-4.0L8.0,4.0" fill="#000000" stroke="#000000"/></g><g id="shape16" transform="translate(658.000000,272.000000)"><path stroke-width="1" d="M8.0,.0L53.0,.0" stroke="#000000" fill="none"/><path stroke-linecap="round" stroke-width="1" d="M8.0,4.0L.0,.0L8.0,-4.0L8.0,4.0" fill="#000000" stroke="#000000"/></g><g id="shape17" transform="matrix(-1.000000,0.000000,0.000000,-1.000000,559.000000,317.000000)"><path stroke-width="1" d="M8.0,.0L58.0,.0" stroke="#000000" fill="none"/><path stroke-linecap="round" stroke-width="1" d="M8.0,4.0L.0,.0L8.0,-4.0L8.0,4.0" fill="#000000" stroke="#000000"/></g><g id="shape18" transform="matrix(-1.000000,0.000000,0.000000,-1.000000,411.000000,317.000000)"><path stroke-width="1" d="M8.0,.0L58.0,.0" stroke="#000000" fill="none"/><path stroke-linecap="round" stroke-width="1" d="M8.0,4.0L.0,.0L8.0,-4.0L8.0,4.0" fill="#000000" stroke="#000000"/></g><g id="shape19" transform="matrix(-1.000000,0.000000,0.000000,-1.000000,711.159000,352.757000)"><path stroke-width="1" d="M8.0,.0L58.0,.0" stroke="#000000" fill="none"/><path stroke-linecap="round" stroke-width="1" d="M8.0,4.0L.0,.0L8.0,-4.0L8.0,4.0" fill="#000000" stroke="#000000"/></g><g id="shape20" transform="translate(658.159000,375.757000)"><path stroke-width="1" d="M8.0,.0L53.0,.0" stroke="#000000" fill="none"/><path stroke-linecap="round" stroke-width="1" d="M8.0,4.0L.0,.0L8.0,-4.0L8.0,4.0" fill="#000000" stroke="#000000"/></g><g id="shape21" transform="matrix(-1.000000,0.000000,0.000000,-1.000000,711.159000,456.148000)"><path stroke-width="1" d="M8.0,.0L58.0,.0" stroke="#000000" fill="none"/><path stroke-linecap="round" stroke-width="1" d="M8.0,4.0L.0,.0L8.0,-4.0L8.0,4.0" fill="#000000" stroke="#000000"/></g><g id="shape22" transform="translate(658.159000,479.148000)"><path stroke-width="1" d="M8.0,.0L53.0,.0" stroke="#000000" fill="none"/><path stroke-linecap="round" stroke-width="1" d="M8.0,4.0L.0,.0L8.0,-4.0L8.0,4.0" fill="#000000" stroke="#000000"/></g><g id="shape23" transform="matrix(-1.000000,0.000000,0.000000,-1.000000,711.159000,558.635000)"><path stroke-width="1" d="M8.0,.0L58.0,.0" stroke="#000000" fill="none"/><path stroke-linecap="round" stroke-width="1" d="M8.0,4.0L.0,.0L8.0,-4.0L8.0,4.0" fill="#000000" stroke="#000000"/></g><g id="shape24" transform="translate(658.159000,581.635000)"><path stroke-width="1" d="M8.0,.0L53.0,.0" stroke="#000000" fill="none"/><path stroke-linecap="round" stroke-width="1" d="M8.0,4.0L.0,.0L8.0,-4.0L8.0,4.0" fill="#000000" stroke="#000000"/></g><g id="shape25" transform="translate(847.000000,491.000000)"><path stroke-width="1" d="M8.0,.0L60.0,.0" stroke="#000000" fill="none"/><path stroke-linecap="round" stroke-width="1" d="M8.0,4.0L.0,.0L8.0,-4.0L8.0,4.0" fill="#000000" stroke="#000000"/></g><g id="shape26" transform="matrix(-1.000000,0.000000,0.000000,-1.000000,907.000000,317.000000)"><path stroke-width="1" d="M8.0,.0L58.0,.0" stroke="#000000" fill="none"/><path stroke-linecap="round" stroke-width="1" d="M8.0,4.0L.0,.0L8.0,-4.0L8.0,4.0" fill="#000000" stroke="#000000"/></g><g id="shape27" transform="translate(703.000000,605.051000)"><text xml:space="preserve" style="fill:#191919;font-family:微软雅黑,PingFang SC,Mircrosoft YaHei,Arial;font-size:13px"><tspan textLength="26.0" y="23.0" x="47.0">DAL</tspan></text></g><g id="shape28" transform="translate(915.000000,226.855000)"><path fill-rule="nonzero" stroke-width="1" d="M74.0,378.0L74.0,.0L.0,.0L.0,378.0L74.0,378.0z" fill="#ffffff" stroke="#101843"/><text xml:space="preserve" style="fill:#191919;font-family:微软雅黑,PingFang SC,Mircrosoft YaHei,Arial;font-size:13px"><tspan textLength="33.0" y="185.0" x="22.5">Data </tspan><tspan textLength="44.0" y="204.0" x="15.0">Service</tspan></text></g><g id="shape29" transform="matrix(-1.000000,0.000000,0.000000,-1.000000,257.000000,317.000000)"><path stroke-width="1" d="M8.0,.0L58.0,.0" stroke="#000000" fill="none"/><path stroke-linecap="round" stroke-width="1" d="M8.0,4.0L.0,.0L8.0,-4.0L8.0,4.0" fill="#000000" stroke="#000000"/></g><g id="shape30" transform="translate(204.000000,491.000000)"><path stroke-width="1" d="M8.0,.0L53.0,.0" stroke="#000000" fill="none"/><path stroke-linecap="round" stroke-width="1" d="M8.0,4.0L.0,.0L8.0,-4.0L8.0,4.0" fill="#000000" stroke="#000000"/></g></g></svg>