<svg height="321" xmlns="http://www.w3.org/2000/svg" width="595" xmlns:xlink="http://www.w3.org/1999/xlink" viewBox="0 0 595 321"><defs/><g transform="translate(-274.00,-207.87)"><path fill-rule="nonzero" id="shape1" d="M595.3,310.3L595.3,11.0C595.3,4.9,590.4,.0,584.3,.0L11.0,.0C4.9,.0,.0,4.9,.0,11.0L.0,310.3C.0,316.3,4.9,321.3,11.0,321.3L584.3,321.3C590.4,321.3,595.3,316.3,595.3,310.3z" fill="#ffffff" transform="translate(274.000000,207.874016)"/><path fill-rule="nonzero" stroke-width="1" id="shape2" d="M567.0,54.0L567.0,.0L.0,.0L.0,54.0L567.0,54.0z" fill="#ffffff" stroke="#101843" transform="translate(290.000000,453.648000)"/><path fill-rule="nonzero" stroke-width="1" id="shape3" d="M567.0,54.0L567.0,.0L.0,.0L.0,54.0L567.0,54.0z" fill="#ffffff" stroke="#101843" transform="translate(290.000000,340.000000)"/><path fill-rule="nonzero" stroke-width="1" id="shape4" d="M567.0,54.0L567.0,.0L.0,.0L.0,54.0L567.0,54.0z" fill="#ffffff" stroke="#101843" transform="translate(290.000000,226.651000)"/><g id="shape5" transform="translate(554.785400,234.651000)"><path fill-rule="nonzero" stroke-width="1" d="M100.3,27.0L100.3,11.0C100.3,4.9,95.4,.0,89.3,.0L11.0,.0C4.9,.0,.0,4.9,.0,11.0L.0,27.0C.0,33.1,4.9,38.0,11.0,38.0L89.3,38.0C95.4,38.0,100.3,33.1,100.3,27.0z" fill="#ffffff" stroke="#101843"/><text xml:space="preserve" style="fill:#191919;font-family:微软雅黑,PingFang SC,Mircrosoft YaHei,Arial;font-size:13px"><tspan textLength="24.0" y="24.5" x="38.2">Vue</tspan></text></g><g id="shape6" transform="translate(554.785400,347.651000)"><path fill-rule="nonzero" stroke-width="1" d="M100.3,27.0L100.3,11.0C100.3,4.9,95.4,.0,89.3,.0L11.0,.0C4.9,.0,.0,4.9,.0,11.0L.0,27.0C.0,33.1,4.9,38.0,11.0,38.0L89.3,38.0C95.4,38.0,100.3,33.1,100.3,27.0z" fill="#ffffff" stroke="#101843"/><text xml:space="preserve" style="fill:#191919;font-family:微软雅黑,PingFang SC,Mircrosoft YaHei,Arial;font-size:13px"><tspan textLength="40.0" y="24.5" x="30.2">Spring</tspan></text></g><g id="shape7" transform="translate(617.564400,461.648000)"><path fill-rule="nonzero" stroke-width="1" d="M100.3,27.0L100.3,11.0C100.3,4.9,95.4,.0,89.3,.0L11.0,.0C4.9,.0,.0,4.9,.0,11.0L.0,27.0C.0,33.1,4.9,38.0,11.0,38.0L89.3,38.0C95.4,38.0,100.3,33.1,100.3,27.0z" fill="#ffffff" stroke="#101843"/><text xml:space="preserve" style="fill:#191919;font-family:微软雅黑,PingFang SC,Mircrosoft YaHei,Arial;font-size:13px"><tspan textLength="80.0" y="24.5" x="10.2">ElasticSearch</tspan></text></g><g id="shape8" transform="translate(742.789400,461.648000)"><path fill-rule="nonzero" stroke-width="1" d="M100.3,27.0L100.3,11.0C100.3,4.9,95.4,.0,89.3,.0L11.0,.0C4.9,.0,.0,4.9,.0,11.0L.0,27.0C.0,33.1,4.9,38.0,11.0,38.0L89.3,38.0C95.4,38.0,100.3,33.1,100.3,27.0z" fill="#ffffff" stroke="#101843"/><text xml:space="preserve" style="fill:#191919;font-family:微软雅黑,PingFang SC,Mircrosoft YaHei,Arial;font-size:13px"><tspan textLength="69.0" y="24.5" x="15.7">Aliyun OSS</tspan></text></g><g id="shape9" transform="translate(379.071400,461.648000)"><path fill-rule="nonzero" stroke-width="1" d="M100.3,27.0L100.3,11.0C100.3,4.9,95.4,.0,89.3,.0L11.0,.0C4.9,.0,.0,4.9,.0,11.0L.0,27.0C.0,33.1,4.9,38.0,11.0,38.0L89.3,38.0C95.4,38.0,100.3,33.1,100.3,27.0z" fill="#ffffff" stroke="#101843"/><text xml:space="preserve" style="fill:#191919;font-family:微软雅黑,PingFang SC,Mircrosoft YaHei,Arial;font-size:13px"><tspan textLength="64.0" y="24.5" x="18.2">Fisco Bcos</tspan></text></g><g id="shape10" transform="translate(504.296400,461.648000)"><path fill-rule="nonzero" stroke-width="1" d="M100.3,27.0L100.3,11.0C100.3,4.9,95.4,.0,89.3,.0L11.0,.0C4.9,.0,.0,4.9,.0,11.0L.0,27.0C.0,33.1,4.9,38.0,11.0,38.0L89.3,38.0C95.4,38.0,100.3,33.1,100.3,27.0z" fill="#ffffff" stroke="#101843"/><text xml:space="preserve" style="fill:#191919;font-family:微软雅黑,PingFang SC,Mircrosoft YaHei,Arial;font-size:13px"><tspan textLength="46.0" y="24.5" x="27.2">MySQL</tspan></text></g><g id="shape11" transform="translate(274.000000,239.651000)"><text xml:space="preserve" style="fill:#191919;font-family:微软雅黑,PingFang SC,Mircrosoft YaHei,Arial;font-size:13px"><tspan textLength="56.0" y="20.5" x="32.0">Frontend</tspan></text></g><g id="shape12" transform="translate(274.000000,352.000000)"><text xml:space="preserve" style="fill:#191919;font-family:微软雅黑,PingFang SC,Mircrosoft YaHei,Arial;font-size:13px"><tspan textLength="52.0" y="20.5" x="34.0">Backend</tspan></text></g><g id="shape13" transform="translate(274.000000,465.648000)"><text xml:space="preserve" style="fill:#191919;font-family:微软雅黑,PingFang SC,Mircrosoft YaHei,Arial;font-size:13px"><tspan textLength="77.0" y="20.5" x="21.5">Data Service</tspan></text></g><g id="shape14" transform="matrix(0.000000,-1.000000,1.000000,0.000000,517.000000,340.000000)"><path stroke-width="1" d="M8.0,.0L57.0,.0" stroke="#000000" fill="none"/><path stroke-linecap="round" stroke-width="1" d="M8.0,4.0L.0,.0L8.0,-4.0L8.0,4.0" fill="#000000" stroke="#000000"/></g><g id="shape15" transform="matrix(0.000000,1.000000,-1.000000,0.000000,687.000000,283.000000)"><path stroke-width="1" d="M8.0,.0L57.0,.0" stroke="#000000" fill="none"/><path stroke-linecap="round" stroke-width="1" d="M8.0,4.0L.0,.0L8.0,-4.0L8.0,4.0" fill="#000000" stroke="#000000"/></g><g id="shape16" transform="matrix(0.000000,-1.000000,1.000000,0.000000,516.000000,454.000000)"><path stroke-width="1" d="M8.0,.0L57.0,.0" stroke="#000000" fill="none"/><path stroke-linecap="round" stroke-width="1" d="M8.0,4.0L.0,.0L8.0,-4.0L8.0,4.0" fill="#000000" stroke="#000000"/></g><g id="shape17" transform="translate(416.000000,295.451000)"><text xml:space="preserve" style="fill:#191919;font-family:微软雅黑,PingFang SC,Mircrosoft YaHei,Arial;font-size:13px"><tspan textLength="49.0" y="20.5" x="35.5">Request</tspan></text></g><g id="shape18" transform="translate(673.000000,295.451000)"><text xml:space="preserve" style="fill:#191919;font-family:微软雅黑,PingFang SC,Mircrosoft YaHei,Arial;font-size:13px"><tspan textLength="58.0" y="20.5" x="31.0">Response</tspan></text></g><g id="shape19" transform="translate(416.000000,408.649000)"><text xml:space="preserve" style="fill:#191919;font-family:微软雅黑,PingFang SC,Mircrosoft YaHei,Arial;font-size:13px"><tspan textLength="49.0" y="20.5" x="35.5">Request</tspan></text></g><g id="shape20" transform="matrix(0.000000,1.000000,-1.000000,0.000000,687.000000,397.000000)"><path stroke-width="1" d="M8.0,.0L57.0,.0" stroke="#000000" fill="none"/><path stroke-linecap="round" stroke-width="1" d="M8.0,4.0L.0,.0L8.0,-4.0L8.0,4.0" fill="#000000" stroke="#000000"/></g><g id="shape21" transform="translate(673.000000,408.649000)"><text xml:space="preserve" style="fill:#191919;font-family:微软雅黑,PingFang SC,Mircrosoft YaHei,Arial;font-size:13px"><tspan textLength="58.0" y="20.5" x="31.0">Response</tspan></text></g></g></svg>