<!--Generated by EdrawMax, SVG Export 架构图v3.en.svg 页-1-->
<svg width="595" xmlns:xlink="http://www.w3.org/1999/xlink" xmlns:ed="https://www.edrawsoft.cn/xml/2017/SVGExtensions/" xmlns="http://www.w3.org/2000/svg" viewBox="0 0 595 321" height="321"><defs><marker id="edrawArrow_4_1" refY="5" markerUnits="userSpaceOnUse" ed:arrow="4" orient="auto-start-reverse" markerWidth="12" markerHeight="12" refX="1"><path stroke-width="1" stroke-linecap="round" fill="context-stroke" stroke="context-stroke" d="M1.0,1.0L9.0,5.0L1.0,9.0L1.0,1.0"/></marker></defs><g transform="translate(-274.00,-207.87)"><path id="shape1" transform="translate(283.307087,207.874016)" fill="#ffffff" fill-rule="nonzero" d="M586.0,310.3L586.0,11.0C586.0,4.9,581.1,.0,575.0,.0L11.0,.0C4.9,.0,.0,4.9,.0,11.0L.0,310.3C.0,316.3,4.9,321.3,11.0,321.3L575.0,321.3C581.1,321.3,586.0,316.3,586.0,310.3z"/><path id="shape2" stroke-width="1" transform="translate(290.000000,453.648000)" fill="#ffffff" fill-rule="nonzero" stroke="#101843" d="M567.0,54.0L567.0,.0L.0,.0L.0,54.0L567.0,54.0z"/><path id="shape3" stroke-width="1" transform="translate(290.000000,340.000000)" fill="#ffffff" fill-rule="nonzero" stroke="#101843" d="M567.0,54.0L567.0,.0L.0,.0L.0,54.0L567.0,54.0z"/><path id="shape4" stroke-width="1" transform="translate(290.000000,226.651000)" fill="#ffffff" fill-rule="nonzero" stroke="#101843" d="M567.0,54.0L567.0,.0L.0,.0L.0,54.0L567.0,54.0z"/><g id="shape5" transform="translate(554.785400,234.651000)"><path stroke-width="1" fill="#ffffff" fill-rule="nonzero" stroke="#101843" d="M100.3,27.0L100.3,11.0C100.3,4.9,95.4,.0,89.3,.0L11.0,.0C4.9,.0,.0,4.9,.0,11.0L.0,27.0C.0,33.1,4.9,38.0,11.0,38.0L89.3,38.0C95.4,38.0,100.3,33.1,100.3,27.0z"/><text style="fill:#191919;font-family:微软雅黑,PingFang SC,Mircrosoft YaHei,Arial;font-size:13px" xml:space="preserve"><tspan x="38.2" textLength="24.0" y="24.5">Vue</tspan></text></g><g id="shape6" transform="translate(554.785400,347.651000)"><path stroke-width="1" fill="#ffffff" fill-rule="nonzero" stroke="#101843" d="M100.3,27.0L100.3,11.0C100.3,4.9,95.4,.0,89.3,.0L11.0,.0C4.9,.0,.0,4.9,.0,11.0L.0,27.0C.0,33.1,4.9,38.0,11.0,38.0L89.3,38.0C95.4,38.0,100.3,33.1,100.3,27.0z"/><text style="fill:#191919;font-family:微软雅黑,PingFang SC,Mircrosoft YaHei,Arial;font-size:13px" xml:space="preserve"><tspan x="30.2" textLength="40.0" y="24.5">Spring</tspan></text></g><g id="shape7" transform="translate(623.564400,461.648000)"><path stroke-width="1" fill="#ffffff" fill-rule="nonzero" stroke="#101843" d="M100.3,27.0L100.3,11.0C100.3,4.9,95.4,.0,89.3,.0L11.0,.0C4.9,.0,.0,4.9,.0,11.0L.0,27.0C.0,33.1,4.9,38.0,11.0,38.0L89.3,38.0C95.4,38.0,100.3,33.1,100.3,27.0z"/><text style="fill:#191919;font-family:微软雅黑,PingFang SC,Mircrosoft YaHei,Arial;font-size:13px" xml:space="preserve"><tspan x="10.2" textLength="80.0" y="24.5">ElasticSearch</tspan></text></g><g id="shape8" transform="translate(742.789400,461.648000)"><path stroke-width="1" fill="#ffffff" fill-rule="nonzero" stroke="#101843" d="M100.3,27.0L100.3,11.0C100.3,4.9,95.4,.0,89.3,.0L11.0,.0C4.9,.0,.0,4.9,.0,11.0L.0,27.0C.0,33.1,4.9,38.0,11.0,38.0L89.3,38.0C95.4,38.0,100.3,33.1,100.3,27.0z"/><text style="fill:#191919;font-family:微软雅黑,PingFang SC,Mircrosoft YaHei,Arial;font-size:13px" xml:space="preserve"><tspan x="36.7" textLength="27.0" y="24.5">OSS</tspan></text></g><g id="shape9" transform="translate(379.071400,461.648000)"><path stroke-width="1" fill="#ffffff" fill-rule="nonzero" stroke="#101843" d="M100.3,27.0L100.3,11.0C100.3,4.9,95.4,.0,89.3,.0L11.0,.0C4.9,.0,.0,4.9,.0,11.0L.0,27.0C.0,33.1,4.9,38.0,11.0,38.0L89.3,38.0C95.4,38.0,100.3,33.1,100.3,27.0z"/><text style="fill:#191919;font-family:微软雅黑,PingFang SC,Mircrosoft YaHei,Arial;font-size:13px" xml:space="preserve"><tspan x="18.2" textLength="64.0" y="24.5">Fisco Bcos</tspan></text></g><g id="shape10" transform="translate(498.296400,461.648000)"><path stroke-width="1" fill="#ffffff" fill-rule="nonzero" stroke="#101843" d="M100.3,27.0L100.3,11.0C100.3,4.9,95.4,.0,89.3,.0L11.0,.0C4.9,.0,.0,4.9,.0,11.0L.0,27.0C.0,33.1,4.9,38.0,11.0,38.0L89.3,38.0C95.4,38.0,100.3,33.1,100.3,27.0z"/><text style="fill:#191919;font-family:微软雅黑,PingFang SC,Mircrosoft YaHei,Arial;font-size:13px" xml:space="preserve"><tspan x="27.2" textLength="46.0" y="24.5">MySQL</tspan></text></g><g id="shape11" transform="translate(274.000000,239.651000)"><text style="fill:#191919;font-family:微软雅黑,PingFang SC,Mircrosoft YaHei,Arial;font-size:13px" xml:space="preserve"><tspan x="36.0" textLength="48.0" y="20.5">Fronted</tspan></text></g><g id="shape12" transform="translate(274.000000,352.000000)"><text style="fill:#191919;font-family:微软雅黑,PingFang SC,Mircrosoft YaHei,Arial;font-size:13px" xml:space="preserve"><tspan x="34.0" textLength="52.0" y="20.5">Backend</tspan></text></g><g id="shape13" transform="translate(274.000000,465.648000)"><text style="fill:#191919;font-family:微软雅黑,PingFang SC,Mircrosoft YaHei,Arial;font-size:13px" xml:space="preserve"><tspan x="21.5" textLength="77.0" y="20.5">Data Service</tspan></text></g><g id="shape14" transform="matrix(0.000000,-1.000000,1.000000,0.000000,517.000000,340.000000)"><path stroke-width="1" fill="none" marker-start="url(#edrawArrow_4_1)" stroke="#000000" d="M8.0,.0L57.0,.0"/></g><g id="shape15" transform="matrix(0.000000,1.000000,-1.000000,0.000000,687.000000,283.000000)"><path stroke-width="1" fill="none" marker-start="url(#edrawArrow_4_1)" stroke="#000000" d="M8.0,.0L57.0,.0"/></g><g id="shape16" transform="matrix(0.000000,-1.000000,1.000000,0.000000,516.000000,454.000000)"><path stroke-width="1" fill="none" marker-start="url(#edrawArrow_4_1)" stroke="#000000" d="M8.0,.0L57.0,.0"/></g><g id="shape17" transform="translate(416.000000,295.451000)"><text style="fill:#191919;font-family:微软雅黑,PingFang SC,Mircrosoft YaHei,Arial;font-size:13px" xml:space="preserve"><tspan x="35.5" textLength="49.0" y="20.5">Request</tspan></text></g><g id="shape18" transform="translate(673.000000,295.451000)"><text style="fill:#191919;font-family:微软雅黑,PingFang SC,Mircrosoft YaHei,Arial;font-size:13px" xml:space="preserve"><tspan x="31.0" textLength="58.0" y="20.5">Response</tspan></text></g><g id="shape19" transform="translate(416.000000,408.649000)"><text style="fill:#191919;font-family:微软雅黑,PingFang SC,Mircrosoft YaHei,Arial;font-size:13px" xml:space="preserve"><tspan x="35.5" textLength="49.0" y="20.5">Request</tspan></text></g><g id="shape20" transform="matrix(0.000000,1.000000,-1.000000,0.000000,687.000000,397.000000)"><path stroke-width="1" fill="none" marker-start="url(#edrawArrow_4_1)" stroke="#000000" d="M8.0,.0L57.0,.0"/></g><g id="shape21" transform="translate(673.000000,408.649000)"><text style="fill:#191919;font-family:微软雅黑,PingFang SC,Mircrosoft YaHei,Arial;font-size:13px" xml:space="preserve"><tspan x="31.0" textLength="58.0" y="20.5">Response</tspan></text></g></g></svg>